<svg xmlns="http://www.w3.org/2000/svg" version="1.1" xmlns:xlink="http://www.w3.org/1999/xlink" xmlns:svgjs="http://svgjs.dev/svgjs" width="2000" height="1247" viewBox="0 0 2000 1247"><g transform="matrix(1,0,0,1,-1.2121212121212466,249.08975414059614)"><svg viewBox="0 0 396 247" data-background-color="#ffffff" preserveAspectRatio="xMidYMid meet" height="1247" width="2000" xmlns="http://www.w3.org/2000/svg" xmlns:xlink="http://www.w3.org/1999/xlink"><g id="tight-bounds" transform="matrix(1,0,0,1,0.2400000000000091,-0.09999999999999432)"><svg viewBox="0 0 395.52 247.2" height="247.2" width="395.52"><g><svg></svg></g><g><svg viewBox="0 0 395.52 247.2" height="247.2" width="395.52"><g transform="matrix(1,0,0,1,75.54432,66.07469668341709)"><svg viewBox="0 0 244.43135999999998 115.05060663316581" height="115.05060663316581" width="244.43135999999998"><g><svg viewBox="0 0 244.43135999999998 115.05060663316581" height="115.05060663316581" width="244.43135999999998"><g><svg viewBox="0 0 244.43136 115.05060663316583" height="115.05060663316581" width="244.43135999999998"><g><svg viewBox="0 0 244.43136 115.05060663316583" height="115.05060663316583" width="244.43136"><g id="textblocktransform"><svg viewBox="0 0 244.43136 115.05060663316583" height="115.05060663316583" width="244.43136" id="textblock"><g><svg viewBox="0 0 244.43136 115.05060663316583" height="115.05060663316583" width="244.43136"><g transform="matrix(1,0,0,1,0,0)"><svg width="244.43136" viewBox="3.42 -34.3 72.87 34.3" height="115.05060663316583" data-palette-color="#b81d33"><path d="M3.59-2.49L3.59-2.49Q3.59-2.81 3.93-3.75 4.27-4.69 4.46-5.64 4.64-6.59 4.64-9.28L4.64-9.28 4.71-12.99Q4.71-12.99 4.71-20.85L4.71-20.85Q4.71-26.51 4.63-27.48 4.54-28.44 3.98-29.8 3.42-31.15 3.42-32.09 3.42-33.03 4.32-33.67 5.22-34.3 6.64-34.3L6.64-34.3 7.23-34.3Q9.08-34.3 10.29-33.57 11.5-32.84 11.5-31.47L11.5-31.47Q11.5-30.93 11.16-29.97 10.82-29 10.52-27.83 10.23-26.66 10.23-16.92 10.23-7.18 10.72-5.92 11.21-4.66 12.37-4.37 13.53-4.08 16.11-4.08 18.7-4.08 19.92-4.47 21.14-4.86 22.39-5.37 23.63-5.88 24.24-5.88L24.24-5.88Q25.9-5.88 25.9-3.66L25.9-3.66 25.9-3.1Q25.9-1.25 24.54-0.51L24.54-0.51Q23.58 0 20.63 0L20.63 0 15.67 0 15.06-0.02 14.43-0.02Q7.2-0.02 5.4-0.42 3.59-0.81 3.59-2.49ZM36.45-0.12L36.45-0.12 35.06-0.12Q33.18-0.12 31.97-0.73 30.76-1.34 30.76-2.09 30.76-2.83 31.59-4.42 32.42-6.01 32.7-8.01 32.98-10.01 32.98-17.64 32.98-25.27 32.72-26.99 32.47-28.71 31.63-29.99 30.78-31.27 30.78-32.17 30.78-33.06 32.09-33.67 33.4-34.28 35.67-34.28L35.67-34.28 36.59-34.28Q38.45-34.28 39.33-33.63 40.21-32.98 40.21-32.3L40.21-32.3 40.21-31.96Q40.21-31.52 39.56-30.27 38.91-29.03 38.68-26.98 38.45-24.93 38.45-16.13 38.45-7.32 38.57-6.32 38.69-5.32 39.4-4.05 40.11-2.78 40.11-1.99 40.11-1.2 39.02-0.66 37.94-0.12 36.45-0.12ZM70.33-31.01L70.33-31.01Q70.33-33.25 73.24-33.25L73.24-33.25Q74.58-33.25 75.43-32.37 76.29-31.49 76.29-30.35 76.29-29.2 75.7-27.55 75.12-25.9 74.92-23.95 74.73-22 74.73-17.02L74.73-17.02 74.7-15.99Q74.68-14.97 74.68-10.44 74.68-5.91 74.31-2.93L74.31-2.93Q74.09-1.05 72.36-1.05 70.62-1.05 68.13-4.17L68.13-4.17Q67.38-5.13 61.12-14.84 54.85-24.56 53.68-24.56L53.68-24.56Q52.9-24.56 52.9-10.28L52.9-10.28Q52.9-8.72 53.11-6.56 53.32-4.39 53.32-4.25L53.32-4.25Q53.32-2.76 52.17-1.75 51.02-0.73 49.43-0.73L49.43-0.73Q47.29-0.73 47.29-2.25L47.29-2.25Q47.29-3.17 47.9-4.69L47.9-4.69Q48.87-7.13 48.87-16.53L48.87-16.53 48.9-17.58 48.97-19.7Q49.02-21.83 49.02-24.93 49.02-28.03 48.46-30.04 47.9-32.06 47.9-32.08L47.9-32.08Q47.9-33.25 49.65-33.25L49.65-33.25Q53.14-33.25 56.27-29.57 59.39-25.88 64.41-18.3 69.43-10.72 69.92-10.72L69.92-10.72Q70.82-10.72 70.82-24.44L70.82-24.44Q70.82-28.1 70.58-29.53 70.33-30.96 70.33-31.01Z" opacity="1" transform="matrix(1,0,0,1,0,0)" fill="#b81d33" class="wordmark-text-0" data-fill-palette-color="primary" id="text-0"></path></svg></g></svg></g></svg></g></svg></g><g></g></svg></g></svg></g></svg></g><g><path d="M109.641 38.914A122.216 122.216 0 0 1 285.879 38.914L275.504 38.914A111.84 111.84 0 0 0 120.016 38.914L109.641 38.914M109.641 208.286A122.216 122.216 0 0 0 285.879 208.286L275.504 208.286A111.84 111.84 0 0 1 120.016 208.286L109.641 208.286" fill="#b81d33" stroke="transparent" data-fill-palette-color="tertiary"></path></g></svg></g><defs></defs></svg><rect width="395.52" height="247.2" fill="none" stroke="none" visibility="hidden"></rect></g></svg></g></svg>